<?xml version="1.0" encoding="UTF-8"?>
<svg id="Layer_2" data-name="Layer 2" xmlns="http://www.w3.org/2000/svg" viewBox="0 0 192.36 165.49">
  <defs>
    <style>
      .cls-1 {
        fill: #f69838;
      }

      .cls-1, .cls-2, .cls-3 {
        stroke-width: 0px;
      }

      .cls-2 {
        fill: #3298ca;
      }

      .cls-3 {
        fill: #a46427;
      }
    </style>
  </defs>
  <g id="Layer_1-2" data-name="Layer 1">
    <path class="cls-2" d="m128.68,0c.15.13.16.3.25.38.62.59.61,1.19.19,1.91-1.42,2.43-2.8,4.88-4.2,7.31-4.92,8.54-9.85,17.09-14.78,25.63-2.87,4.97-5.77,9.93-8.64,14.91-4.51,7.82-9,15.66-13.51,23.48-5.42,9.4-10.85,18.8-16.28,28.19-1.29,2.23-2.57,4.46-3.87,6.68-.21.36-.49.75-.84.96-.61.37-1.34.06-1.78-.71-1.2-2.1-2.39-4.2-3.56-6.32-2.82-5.09-5.64-10.19-8.44-15.29-.65-1.18-1.23-2.39-1.86-3.58-.23-.43-.21-.8.03-1.22.49-.86.93-1.74,1.42-2.6,3.84-6.66,7.67-13.32,11.53-19.96,4.47-7.71,8.96-15.41,13.43-23.12,4.33-7.47,8.64-14.95,12.96-22.42,2.16-3.74,4.31-7.48,6.46-11.23.68-1.19,1.49-2.23,2.64-2.96,9.52-.04,19.13-.04,28.85-.04Z"/>
    <path class="cls-2" d="m63.42,165.49c-.08-.09,0-.22-.03-.26-.51-.57-.37-1.13-.03-1.73,3.42-5.9,6.82-11.8,10.23-17.7,4.87-8.44,9.73-16.89,14.6-25.33,5.08-8.82,10.17-17.64,15.26-26.46,4.93-8.54,9.86-17.08,14.78-25.63,2.08-3.6,4.15-7.21,6.22-10.82.39-.68.7-1.52,1.66-1.49.89.03,1.18.82,1.55,1.48,3.79,6.82,7.58,13.64,11.36,20.46.58,1.04,1.13,2.09,1.74,3.11.64,1.07.6,2.08-.02,3.14-1.29,2.18-2.55,4.39-3.82,6.58-3.74,6.44-7.47,12.88-11.21,19.32-3.9,6.72-7.79,13.44-11.68,20.15-2.29,3.94-4.58,7.87-6.87,11.81-3.98,6.85-7.95,13.7-11.95,20.54-.55.95-1.23,1.83-1.75,2.79-9.92.04-19.92.04-30.04.04Z"/>
    <path class="cls-1" d="m192.36,82.99c-.5-.12-.43.38-.55.57-2.03,3.4-4.02,6.82-6.08,10.21-3.29,5.42-6.65,10.79-9.93,16.21-2.77,4.57-5.52,9.16-8.19,13.79-2.21,3.83-5.49,5.69-9.84,5.71-5.48.03-10.95,0-16.43,0h-.48c-1.85-.02-2.34-.88-1.41-2.5,2.19-3.81,4.4-7.61,6.59-11.42l10.32-17.91c2.79-4.84,5.55-9.69,8.42-14.49.8-1.34.76-2.46,0-3.75-2.22-3.79-4.38-7.62-6.57-11.43-3.46-6.01-6.91-12.01-10.4-18-.61-1.05-.55-1.96.06-3,3.04-5.2,6.03-10.42,9.03-15.64.91-1.58,1.8-3.17,2.72-4.74.22-.37.48-.75.82-1,.54-.41,1.3-.18,1.71.5.65,1.08,1.27,2.19,1.89,3.3,3.3,5.91,6.6,11.82,9.91,17.73,3.73,6.67,7.48,13.33,11.22,19.99,2.19,3.9,4.38,7.8,6.56,11.71.19.34.32.72.55,1.12.08,1,.08,1.96.08,3.03Z"/>
    <path class="cls-1" d="m45.11,116.7c.23.76-.12,1.39-.48,2.02-1.84,3.19-3.68,6.38-5.52,9.57-2.04,3.53-4.14,7.03-6.08,10.62-.95,1.76-2.17,1.8-3.13,0-2.66-4.95-5.48-9.82-8.23-14.73-5.75-10.25-11.49-20.51-17.24-30.77-1.24-2.21-2.48-4.42-3.75-6.61-.9-1.55-.91-3.07.01-4.6,4.33-7.15,8.67-14.29,12.98-21.45,3.84-6.38,7.63-12.79,11.49-19.16,2.01-3.32,4.95-5.18,8.89-5.21,5.87-.04,11.74,0,17.62,0,.28,0,.56-.02.83.02.79.11,1.25.81.98,1.56-.17.48-.45.93-.71,1.37-5.46,9.47-10.93,18.93-16.4,28.39-2.89,5-5.77,10.02-8.74,14.98-.75,1.25-.71,2.25.01,3.49,4.72,8.11,9.37,16.26,14.04,24.4,1.08,1.89,2.16,3.79,3.25,5.81.05.23.1.28.18.3Z"/>
    <path class="cls-3" d="m45.11,116.65c-.08.03-.13-.02-.14-.16.07-.02.12.03.14.16Z"/>
  </g>
</svg>