<?xml version="1.0" encoding="UTF-8"?>
<svg id="Layer_2" data-name="Layer 2" xmlns="http://www.w3.org/2000/svg" viewBox="0 0 1101.19 335.11">
  <defs>
    <style>
      .cls-1 {
        fill: #0078d3;
      }

      .cls-1, .cls-2 {
        stroke-width: 0px;
      }

      .cls-3 {
        fill: #f5f5f5;
        stroke: #000;
        stroke-miterlimit: 10;
        stroke-width: 7px;
      }
    </style>
  </defs>
  <g id="Layer_1-2" data-name="Layer 1">
    <rect class="cls-3" x="3.5" y="3.5" width="1094.19" height="328.11" rx="23.95" ry="23.95"/>
    <g>
      <path class="cls-2" d="m475.05,189.3c-1.77,0-3.35-.15-4.75-.45-1.99-.44-3.75-1.19-5.28-2.25-3.11,4.42-7.23,6.63-12.35,6.63-2.51,0-4.91-.41-7.2-1.23-2.43-.85-6.71-2.81-12.85-5.89l-2.29-1.19c-.9-.49-1.64-.89-2.21-1.19v36h-13.42v-48.64l8.84-5.11c1.45.82,2.66,1.5,3.64,2.05.35.19.76.41,1.23.65l1.15.65c1.25-4.17,2.75-7.58,4.5-10.23,2.15-3.25,4.72-5.6,7.69-7.08,2.26-1.09,4.69-1.64,7.28-1.64,2.86,0,5.66.67,8.39,2,2.37,1.23,4.47,2.92,6.3,5.07,1.75,2.07,3.08,4.38,4.01,6.91.44,1.12.75,2.21.94,3.27.6,2.86,1.38,4.94,2.33,6.22,1.01,1.34,2.36,2,4.05,2v13.42Zm-19.39-10.76c.74-1.53,1.1-3.46,1.1-5.81s-.71-4.39-2.13-6.14c-1.5-1.85-3.37-2.78-5.6-2.78-1.64,0-3.26,1.34-4.87,4.01-1.34,2.24-2.36,4.77-3.07,7.61,4.72,2.16,8.43,3.78,11.13,4.87.35.16.7.25,1.02.25.95,0,1.76-.67,2.41-2Z"/>
      <path class="cls-2" d="m506.26,172.16c0,1.31.31,2.24.94,2.78.71.63,1.96.94,3.76.94h5.97v13.42h-5.97c-1.77,0-3.45-.19-5.03-.57-1.25-.3-2.43-.72-3.52-1.27-1.25-.6-2.2-1.2-2.82-1.8-.63.6-1.64,1.2-3.03,1.8-2.75,1.23-6.03,1.84-9.82,1.84h-13.75v-13.42h14.69c1.96,0,3.34-.33,4.13-.98.71-.57,1.06-1.49,1.06-2.74v-11.13h13.38v11.13Zm-22.62,40.83l-8.02-8.1,7.9-8.18,8.18,8.18-8.06,8.1Zm17.26-.04l-8.02-8.1,7.94-8.18,8.18,8.18-8.1,8.1Z"/>
      <path class="cls-2" d="m553.06,152.89c3.71,3.93,5.56,8.78,5.56,14.56,0,3.11-.57,5.92-1.72,8.43h4.87v13.42h-5.93c-6.66,0-12.45-.75-17.39-2.25-4.66,1.5-10.47,2.25-17.43,2.25h-5.93v-13.42h4.87c-1.15-2.51-1.72-5.32-1.72-8.43,0-5.78,1.85-10.64,5.56-14.56,3.85-4.06,8.73-6.1,14.65-6.1s10.79,2.03,14.6,6.1Zm-23.36-10.8l-8.02-8.1,7.9-8.18,8.18,8.18-8.06,8.1Zm14.56,29.33c.82-1.06,1.23-2.39,1.23-3.97,0-1.91-.55-3.53-1.64-4.87-1.28-1.58-3.08-2.37-5.4-2.37s-4.12.79-5.4,2.37c-1.09,1.34-1.64,2.96-1.64,4.87,0,1.58.42,2.9,1.27,3.97,1.12,1.47,3.04,2.58,5.77,3.31,2.73-.74,4.66-1.84,5.81-3.31Zm2.58-29.37l-8.02-8.1,7.94-8.18,8.18,8.18-8.1,8.1Z"/>
      <path class="cls-2" d="m593.2,172.16c0,1.31.31,2.24.94,2.78.71.63,1.96.94,3.76.94h5.97v13.42h-5.97c-1.77,0-3.45-.19-5.03-.57-1.25-.3-2.43-.72-3.52-1.27-1.25-.6-2.2-1.2-2.82-1.8-.63.6-1.64,1.2-3.03,1.8-2.75,1.23-6.03,1.84-9.82,1.84h-13.75v-13.42h14.69c1.96,0,3.34-.33,4.13-.98.71-.57,1.06-1.49,1.06-2.74v-11.13h13.38v11.13Zm-19.68-20.86l-8.02-8.1,7.9-8.18,8.18,8.18-8.06,8.1Zm17.14-.04l-8.02-8.1,7.94-8.18,8.18,8.18-8.1,8.1Z"/>
      <path class="cls-2" d="m633.7,175.02c.93-.76,1.39-2.11,1.39-4.05v-9.94h13.42v9.94c0,1.77.25,2.97.74,3.6.63.87,1.91,1.31,3.84,1.31,1.39,0,2.43-.29,3.11-.86.9-.76,1.35-2.11,1.35-4.05v-9.94h13.42v9.94c0,1.69.31,2.89.94,3.6.74.87,2.09,1.31,4.05,1.31h5.24v13.42h-5.24c-5.62,0-9.53-1.24-11.74-3.72-3.25,2.48-6.96,3.72-11.13,3.72-5.35,0-9.12-1.24-11.33-3.72-3.25,2.48-6.9,3.72-10.96,3.72-4.31,0-8.09-1.24-11.33-3.72-2.21,2.48-6.12,3.72-11.74,3.72h-5.89v-13.42h5.89c1.96,0,3.31-.44,4.05-1.31.63-.71.94-1.91.94-3.6v-9.94h13.42v9.94c0,1.94.46,3.29,1.39,4.05.66.57,1.68.86,3.07.86s2.43-.29,3.11-.86Z"/>
      <path class="cls-2" d="m721.65,160.21c1.28,2.05,2.25,4.36,2.91,6.95.54,2.21.82,4.31.82,6.3,0,6.63-1.66,11.59-4.99,14.89-1.25,1.28-2.73,2.26-4.42,2.95-1.36.54-2.74.86-4.13.94-.27.03-.66.04-1.15.04-3.41,0-7.04-.85-10.88-2.54-1.31-.55-2.71-1.24-4.21-2.09l-.9-.49-.82-.45c-.63-.38-1.08-.64-1.35-.78-2.24,2.24-5.96,3.35-11.17,3.35h-2.21v-13.42h1.68c2.75,0,4.57-.57,5.44-1.72.38-.52,1.15-2.56,2.29-6.14.08-.25.16-.48.25-.7.08-.3.19-.6.33-.9.27-.76.59-1.5.94-2.21.93-1.99,2.02-3.75,3.27-5.28,3.63-4.45,8.24-6.67,13.83-6.67,6.33,0,11.15,2.65,14.48,7.94Zm-9.25,17.34c.35-.98.53-2.04.53-3.19,0-.3-.01-.6-.04-.9-.14-2.1-.75-3.91-1.84-5.44-1.12-1.55-2.41-2.33-3.89-2.33-2.02,0-3.68,1.2-4.99,3.6-.46.82-.89,1.83-1.27,3.03-.14.38-.29.85-.45,1.39l-.16.61-.16.53c1.58,1.36,3.6,2.5,6.05,3.4,2.02.71,3.63,1.06,4.83,1.06.49,0,.95-.59,1.39-1.76Z"/>
      <path class="cls-2" d="m774.79,161.07c-1.39,4.96-2.32,9.03-2.78,12.19-.03.22-.04.44-.04.65,0,.52.1.97.29,1.35.33.71.91,1.06,1.76,1.06h48.31c1.96,0,2.95-.9,2.95-2.7v-12.64h13.42v9.98c.14,1.75.48,2.95,1.02,3.6.71.87,2.03,1.31,3.97,1.31h4.7v13.42h-4.7c-4.91,0-8.51-.93-10.8-2.78-2.13,1.42-5.09,2.34-8.88,2.78-2.75.3-7.65.45-14.69.45h-23.2c-7.69,0-12.61-.19-14.77-.57-4.2-.71-7.4-2.74-9.61-6.09-1.39-2.1-2.26-4.5-2.62-7.2-.11-.98-.16-2-.16-3.07,0-1.17.07-2.39.2-3.64.19-1.69.7-4.1,1.51-7.24.25-1.01.52-2.03.82-3.07.11-.35.21-.68.29-.98.05-.25.1-.4.12-.45l12.89,3.64Zm16.16-2.29l-8.02-8.1,7.9-8.18,8.18,8.18-8.06,8.1Zm17.14-.04l-8.02-8.1,7.94-8.18,8.18,8.18-8.1,8.1Z"/>
      <path class="cls-2" d="m887.13,148.06c2.51,4.83,3.76,11.09,3.76,18.78,0,8.26-3.16,14.33-9.49,18.2-4.66,2.84-10.4,4.25-17.22,4.25h-17.18v-13.42h17.18c4.55,0,7.92-.3,10.1-.9-6.25,0-11.35-1.34-15.3-4.01-4.69-3.19-7.04-7.88-7.04-14.07,0-1.83.26-3.68.78-5.56.63-2.29,1.59-4.32,2.9-6.1,3.35-4.64,8.45-6.95,15.3-6.95,7.45,0,12.85,3.26,16.2,9.78Zm-27.7-23.2l8.51-8.59,8.67,8.67-8.63,8.59-8.55-8.67Zm18.33,36.86l-.08-.94c-.08-.68-.16-1.29-.25-1.84-.22-1.45-.53-2.66-.94-3.64-1.04-2.59-2.88-4.01-5.52-4.25l-.41-.04h-.37c-1.77,0-3.18.53-4.21,1.6-.93.98-1.39,2.22-1.39,3.72v.37c.11,2.65,1.45,4.36,4.01,5.15,1.61.49,4.69.74,9.25.74l-.08-.86Z"/>
      <path class="cls-2" d="m918.1,189.3h-3.68c-3.03,0-5.74-.53-8.14-1.6-1.83-.79-3.42-1.87-4.79-3.23-1.36-1.36-2.44-2.96-3.23-4.79-1.06-2.4-1.6-5.11-1.6-8.14v-41.24h13.38v41.24c0,1.66.31,2.81.94,3.44.6.6,1.75.9,3.44.9h3.68v13.42Z"/>
      <path class="cls-2" d="m951.48,168.52c.22,1.31.33,2.56.33,3.76,0,3.71-1.06,7.04-3.19,9.98-3.41,4.69-8.96,7.04-16.65,7.04h-16v-13.42h15.71c2.45,0,4.19-.33,5.2-.98,1.04-.63,1.55-1.62,1.55-2.99,0-.41-.05-.86-.16-1.35-.27-1.39-.55-2.81-.82-4.25-.11-.54-.22-1.13-.33-1.76l-.16-.78-.12-.78c-.41-2.24-.72-3.83-.94-4.79l12.8-3.89c.82,3.85,1.75,8.58,2.78,14.2Zm-26.8,44.22l-8.02-8.1,7.9-8.18,8.18,8.18-8.06,8.1Zm17.26-.04l-8.02-8.1,7.94-8.18,8.18,8.18-8.1,8.1Z"/>
      <path class="cls-2" d="m987.15,183.08c0,8.51-2.14,15.19-6.42,20.04-4.77,5.43-11.75,8.14-20.95,8.14h-4.05v-13.42h4.05c5.02,0,8.59-1.13,10.72-3.4,2.15-2.26,3.23-6.05,3.23-11.37v-22.05h13.42v22.05Z"/>
      <path class="cls-2" d="m1015.34,142.25l.74,1.06c.16.25.31.45.45.61.19.27.37.55.53.82.46.65.95,1.34,1.47,2.05,1.34,1.94,2.82,4.08,4.46,6.42,2.13,3,4.45,6.29,6.95,9.86,1.96,2.84,3.08,5.8,3.35,8.88.05.55.08,1.09.08,1.64,0,2.56-.59,4.99-1.76,7.28-1.45,2.75-3.52,4.9-6.22,6.42-2.73,1.55-5.78,2.33-9.16,2.33-3.93,0-9.04-.82-15.34-2.45-1.88-.49-3.78-1.04-5.69-1.64-.6-.16-1.17-.34-1.72-.53-.19-.05-.36-.1-.49-.12l-.12-.08h-.08l4.3-12.72c1.04.35,2.25.74,3.64,1.15,1.72.49,3.41.94,5.07,1.35,4.47,1.09,7.95,1.64,10.43,1.64,1.77,0,2.93-.5,3.48-1.51.19-.38.29-.79.29-1.23,0-.79-.34-1.68-1.02-2.66-2.51-3.57-4.83-6.87-6.96-9.9-1.61-2.29-3.11-4.43-4.5-6.42-2.18-3.08-3.27-4.64-3.27-4.66l11.09-7.57Z"/>
    </g>
    <g>
      <path class="cls-1" d="m202.16,279.22h-105.61v-105.33h105.52c0,1.06,0,1.92,0,2.79,0,33.31,0,66.63,0,99.94,0,.87.05,1.73.08,2.6Z"/>
      <path class="cls-1" d="m319.06,173.61v105.61h-105.61c.03-.87.08-1.73.08-2.6,0-33.38,0-66.76,0-100.14v-2.79h2.79c33.38,0,66.76,0,100.14,0,.87,0,1.73-.05,2.6-.08Z"/>
      <path class="cls-1" d="m319.06,56.71v105.61c-.86-.05-1.73-.13-2.59-.13-33.38,0-66.76,0-100.14,0-.9,0-1.79,0-2.68,0V56.71h105.41Z"/>
      <path class="cls-1" d="m201.95,56.85v105.19h-105.27V56.85h105.27Z"/>
    </g>
  </g>
</svg>