<?xml version="1.0" encoding="UTF-8"?>
<svg id="Layer_2" data-name="Layer 2" xmlns="http://www.w3.org/2000/svg" viewBox="0 0 1101.19 335.11">
  <defs>
    <style>
      .cls-1, .cls-2, .cls-3 {
        stroke-width: 0px;
      }

      .cls-4 {
        fill: #f5f5f5;
        stroke: #000;
        stroke-miterlimit: 10;
        stroke-width: 7px;
      }

      .cls-2 {
        fill: #040099;
      }

      .cls-3 {
        fill: #77abf0;
      }
    </style>
  </defs>
  <g id="Layer_1-2" data-name="Layer 1">
    <rect class="cls-4" x="3.5" y="3.5" width="1094.19" height="328.11" rx="23.95" ry="23.95"/>
    <g>
      <path class="cls-1" d="m405.83,161.07c-1.39,4.96-2.32,9.03-2.78,12.19-.03.22-.04.44-.04.65,0,.52.1.97.29,1.35.33.71.91,1.06,1.76,1.06h48.31c1.96,0,2.95-.9,2.95-2.7v-12.64h13.42v9.98c.14,1.75.48,2.95,1.02,3.6.71.87,2.03,1.31,3.97,1.31h4.7v13.42h-4.7c-4.91,0-8.51-.93-10.8-2.78-2.13,1.42-5.09,2.34-8.88,2.78-2.75.3-7.65.45-14.69.45h-23.2c-7.69,0-12.61-.19-14.77-.57-4.2-.71-7.4-2.74-9.61-6.09-1.39-2.1-2.26-4.5-2.62-7.2-.11-.98-.16-2-.16-3.07,0-1.17.07-2.39.2-3.64.19-1.69.7-4.1,1.51-7.24.25-1.01.52-2.03.82-3.07.11-.35.2-.68.29-.98.05-.25.1-.4.12-.45l12.89,3.64Zm16.16-2.29l-8.02-8.1,7.9-8.18,8.18,8.18-8.06,8.1Zm17.14-.04l-8.02-8.1,7.94-8.18,8.18,8.18-8.1,8.1Z"/>
      <path class="cls-1" d="m512.89,168.52c.22,1.31.33,2.56.33,3.76,0,3.71-1.06,7.04-3.19,9.98-3.41,4.69-8.96,7.04-16.65,7.04h-16v-13.42h15.71c2.45,0,4.19-.33,5.2-.98,1.04-.63,1.55-1.62,1.55-2.99,0-.41-.06-.86-.16-1.35-.27-1.39-.55-2.81-.82-4.25-.11-.54-.22-1.13-.33-1.76l-.16-.78-.12-.78c-.41-2.24-.72-3.83-.94-4.79l12.8-3.89c.82,3.85,1.75,8.58,2.78,14.2Zm-26.8,44.22l-8.02-8.1,7.9-8.18,8.18,8.18-8.06,8.1Zm17.26-.04l-8.02-8.1,7.94-8.18,8.18,8.18-8.1,8.1Z"/>
      <path class="cls-1" d="m541.85,189.3h-3.68c-3.03,0-5.74-.53-8.14-1.6-1.83-.79-3.42-1.87-4.79-3.23-1.36-1.36-2.44-2.96-3.23-4.79-1.06-2.4-1.6-5.11-1.6-8.14v-41.24h13.38v41.24c0,1.66.31,2.81.94,3.44.6.6,1.75.9,3.44.9h3.68v13.42Z"/>
      <path class="cls-1" d="m571.59,175.02c.93-.76,1.39-2.11,1.39-4.05v-9.94h13.42v9.94c0,1.77.25,2.97.74,3.6.63.87,1.91,1.31,3.85,1.31,1.39,0,2.43-.29,3.11-.86.9-.76,1.35-2.11,1.35-4.05v-9.94h13.42v9.94c0,1.69.31,2.89.94,3.6.74.87,2.09,1.31,4.05,1.31h5.24v13.42h-5.24c-5.62,0-9.53-1.24-11.74-3.72-3.25,2.48-6.95,3.72-11.13,3.72-5.35,0-9.12-1.24-11.33-3.72-3.25,2.48-6.9,3.72-10.96,3.72-4.31,0-8.09-1.24-11.33-3.72-2.21,2.48-6.12,3.72-11.74,3.72h-5.89v-13.42h5.89c1.96,0,3.31-.44,4.05-1.31.63-.71.94-1.91.94-3.6v-9.94h13.42v9.94c0,1.94.46,3.29,1.39,4.05.65.57,1.68.86,3.07.86s2.43-.29,3.11-.86Z"/>
      <path class="cls-1" d="m645.31,168.52c.22,1.31.33,2.56.33,3.76,0,3.71-1.06,7.04-3.19,9.98-3.41,4.69-8.96,7.04-16.65,7.04h-8.75v-13.42h8.47c2.46,0,4.19-.33,5.2-.98,1.04-.63,1.55-1.62,1.55-2.99,0-.41-.05-.86-.16-1.35-.27-1.39-.55-2.81-.82-4.25-.11-.54-.22-1.13-.33-1.76l-.16-.78-.12-.78c-.41-2.24-.72-3.83-.94-4.79l12.8-3.89c.82,3.85,1.75,8.58,2.78,14.2Zm-23.44,35.02l8.51-8.59,8.67,8.67-8.59,8.59-8.59-8.67Z"/>
      <path class="cls-1" d="m685.81,156.73c3.3,4.01,4.95,9,4.95,14.97v15.01c0,9.49-3.91,16.27-11.74,20.33-3.03,1.58-6.63,2.73-10.8,3.44-3.25.57-6.79.86-10.64.86v-13.42c6.82,0,11.95-.96,15.38-2.86,2.78-1.53,4.17-3.45,4.17-5.77h-5.73c-4.88,0-9.01-1.31-12.39-3.93-4.12-3.16-6.18-7.72-6.18-13.66s1.36-10.43,4.09-14.36c3.33-4.8,8.15-7.2,14.48-7.2s10.83,2.2,14.4,6.59Zm-8.47,19.19v-4.21c0-2.51-.53-4.5-1.6-5.97-1.06-1.44-2.51-2.17-4.34-2.17s-3.33.72-4.42,2.17c-1.01,1.34-1.51,3.07-1.51,5.2,0,.25.01.5.04.78.08,1.45.72,2.54,1.92,3.27,1.04.63,2.36.94,3.97.94h5.93Z"/>
      <path class="cls-1" d="m740.88,142.25c.05.03.12.08.2.16.16.19.37.42.61.7.76.79,1.61,1.69,2.54,2.7,2.92,3.14,6.12,6.61,9.61,10.43,1.09,1.23,1.99,2.29,2.7,3.19,1.01,1.25,1.87,2.47,2.58,3.64,1.8,3.05,2.7,6.11,2.7,9.16s-.61,5.84-1.84,8.26c-.96,1.83-2.22,3.4-3.8,4.7-3.35,2.73-7.77,4.09-13.25,4.09s-9.89-1.38-13.21-4.13c-1.55-1.28-2.8-2.82-3.72-4.62-1.23-2.37-1.84-5.09-1.84-8.14,0-5.37,2.21-10.51,6.63-15.42l2.7-3.07-2.41-2.58,9.78-9.16.04.08Zm5.89,33.83c1.47-1.04,2.21-2.58,2.21-4.62,0-1.23-1.06-2.96-3.19-5.2-1.06-1.09-2.13-2.07-3.19-2.95-3.87,3.19-5.81,5.97-5.81,8.35,0,2.02.76,3.53,2.29,4.54.57.38,1.24.67,2,.86.63.16,1.24.25,1.84.25,1.45,0,2.73-.41,3.85-1.23Z"/>
      <path class="cls-1" d="m789.52,144.09c.71,1.09,1.66,2.51,2.86,4.25,3.16,4.77,7,10.53,11.5,17.26.25.38.5.76.78,1.15.35.49.7.98,1.02,1.47.95,1.31,1.85,2.46,2.7,3.44,2.4,2.84,4.24,4.25,5.52,4.25h2.86v13.38h-3.89c-3.98,0-7.79-1.62-11.41-4.87-1.17,1.25-2.51,2.29-4.01,3.11-2.78,1.58-5.92,2.37-9.41,2.37-3.85,0-8.62-.64-14.32-1.92-1.8-.41-3.6-.86-5.4-1.35-.6-.16-1.16-.33-1.68-.49-.19-.05-.36-.1-.49-.12l-.16-.04-.08-.04,3.97-12.8c.93.27,2.02.59,3.27.94,1.61.41,3.18.78,4.71,1.1,4.2.9,7.59,1.35,10.19,1.35,2.04,0,3.39-.61,4.05-1.84.22-.38.33-.78.33-1.19,0-.71-.29-1.49-.86-2.33-2.4-3.54-4.62-6.84-6.67-9.9-1.55-2.32-3.01-4.49-4.38-6.5l-3.19-4.79,11.21-7.32.98,1.43Z"/>
      <path class="cls-1" d="m877.06,159.48c3.74,5.07,5.74,10.29,6.01,15.67.03.44.04.89.04,1.35,0,4.86-1.53,9.06-4.58,12.6-3.63,4.23-9.07,6.34-16.32,6.34-3.98,0-8.88-1.08-14.69-3.23-1.85-.68-3.78-1.47-5.77-2.37-.33-.16-.68-.33-1.06-.49-.25-.11-.53-.23-.86-.37-.57-.27-.91-.44-1.02-.49-4.45.55-9.67.82-15.67.82h-8.1v-13.42h7.53c-1.17-2.92-1.76-5.2-1.76-6.83,0-4.94,1.54-9.26,4.62-12.97,3.74-4.45,8.93-6.67,15.59-6.67,5.81,0,10.58,2.11,14.32,6.34,3.41,3.85,5.11,8.28,5.11,13.29,0,2.95-.76,5.84-2.29,8.67-.79,1.42-1.57,2.54-2.33,3.35,2.18.9,4.75,1.35,7.69,1.35,1.58,0,2.92-.39,4.01-1.19,1.09-.76,1.83-1.81,2.21-3.15.22-.71.33-1.45.33-2.21,0-2.43-1.08-5.07-3.23-7.94-6.66-8.92-11.16-14.99-13.5-18.2l10.43-8.39c4.64,6.27,9.07,12.31,13.29,18.12Zm-29.74,9.57c0-2.18-.79-3.9-2.37-5.15-1.23-.98-2.54-1.47-3.93-1.47-.63,0-1.31.11-2.05.33-.85.25-1.61.6-2.29,1.06-1.8,1.25-2.7,3-2.7,5.24,0,1.47.72,2.88,2.17,4.21,1.42,1.28,3.04,2.07,4.87,2.37,4.2-1.45,6.3-3.64,6.3-6.59Z"/>
      <path class="cls-1" d="m911.92,189.3h-3.68c-3.03,0-5.74-.53-8.14-1.6-1.83-.79-3.42-1.87-4.79-3.23-1.36-1.36-2.44-2.96-3.23-4.79-1.06-2.4-1.6-5.11-1.6-8.14v-41.24h13.38v41.24c0,1.66.31,2.81.94,3.44.6.6,1.75.9,3.44.9h3.68v13.42Z"/>
      <path class="cls-1" d="m941.66,175.02c.93-.76,1.39-2.11,1.39-4.05v-9.94h13.42v9.94c0,1.77.25,2.97.74,3.6.63.87,1.91,1.31,3.85,1.31,1.39,0,2.43-.29,3.11-.86.9-.76,1.35-2.11,1.35-4.05v-9.94h13.42v9.94c0,1.69.31,2.89.94,3.6.74.87,2.09,1.31,4.05,1.31h5.24v13.42h-5.24c-5.62,0-9.53-1.24-11.74-3.72-3.25,2.48-6.95,3.72-11.13,3.72-5.35,0-9.12-1.24-11.33-3.72-3.25,2.48-6.9,3.72-10.96,3.72-4.31,0-8.09-1.24-11.33-3.72-2.21,2.48-6.12,3.72-11.74,3.72h-5.89v-13.42h5.89c1.96,0,3.31-.44,4.05-1.31.63-.71.94-1.91.94-3.6v-9.94h13.42v9.94c0,1.94.46,3.29,1.39,4.05.65.57,1.68.86,3.07.86s2.43-.29,3.11-.86Zm7.28-30.93l-8.1,8.18-8.1-8.1,8.1-8.18,8.1,8.1Zm7.94-10.68l-7.12,7.12-7.04-7.04,7.12-7.12,7.04,7.04Zm9.82,10.55l-8.02,8.1-8.3-8.02,8.18-8.18,8.14,8.1Z"/>
      <path class="cls-1" d="m1029.61,160.21c1.28,2.05,2.25,4.36,2.91,6.95.54,2.21.82,4.31.82,6.3,0,6.63-1.66,11.59-4.99,14.89-1.25,1.28-2.73,2.26-4.42,2.95-1.36.54-2.74.86-4.13.94-.27.03-.66.04-1.15.04-3.41,0-7.04-.85-10.88-2.54-1.31-.55-2.71-1.24-4.21-2.09l-.9-.49-.82-.45c-.63-.38-1.08-.64-1.35-.78-2.24,2.24-5.96,3.35-11.17,3.35h-2.21v-13.42h1.68c2.75,0,4.57-.57,5.44-1.72.38-.52,1.15-2.56,2.29-6.14.08-.25.16-.48.25-.7.08-.3.19-.6.33-.9.27-.76.59-1.5.94-2.21.93-1.99,2.02-3.75,3.27-5.28,3.63-4.45,8.24-6.67,13.83-6.67,6.33,0,11.15,2.65,14.48,7.94Zm-9.25,17.34c.35-.98.53-2.04.53-3.19,0-.3-.01-.6-.04-.9-.14-2.1-.75-3.91-1.84-5.44-1.12-1.55-2.41-2.33-3.89-2.33-2.02,0-3.68,1.2-4.99,3.6-.46.82-.89,1.83-1.27,3.03-.14.38-.29.85-.45,1.39l-.16.61-.16.53c1.58,1.36,3.6,2.5,6.05,3.4,2.02.71,3.63,1.06,4.83,1.06.49,0,.95-.59,1.39-1.76Z"/>
    </g>
    <g>
      <path class="cls-2" d="m237.38,295.78c-2.98-1.17-6.19-1.97-8.91-3.6-7.5-4.49-11.54-11.34-11.6-20.08-.16-21.64-.14-43.28-.02-64.92.07-13.15,10.63-23.68,23.81-23.75,21.55-.11,43.11-.11,64.67,0,13.19.07,23.73,10.57,23.81,23.75.13,21.55.1,43.11,0,64.67-.05,11.71-8.19,21.24-19.71,23.49-.29.06-.55.28-.83.43h-71.24Zm19.53-96.25c-5.18-.02-10.36-.09-15.54-.06-5.15.02-8.49,3.33-8.49,8.46-.02,21.07-.02,42.13,0,63.2,0,5.27,3.34,8.58,8.64,8.58,20.98.02,41.96.02,62.95,0,5.32,0,8.63-3.3,8.66-8.57.03-5.27,0-10.53,0-15.8,0-15.8.02-31.6-.01-47.4,0-5.12-3.37-8.46-8.49-8.48-5.18-.02-10.36.04-15.54.06-10.72,0-21.45,0-32.17,0Z"/>
      <path class="cls-2" d="m299.94,127.3h-38.37c2.18,10.58,3.46,21.16,3.38,31.87-.04,5.98-5.94,9.91-11.19,7.48-3.27-1.51-4.84-4.17-4.85-7.8-.03-9.98-1.24-19.83-3.51-29.54-.15-.65-.35-1.29-.54-2h-88.24c-5.34,21.34-5.4,42.67.1,64.12,11.84,0,23.54-.06,35.24.06,1.75.02,3.68.52,5.19,1.38,3.04,1.74,4.25,5.43,3.29,8.71-1.04,3.56-3.98,5.86-7.8,5.88-9.2.05-18.39.02-27.59.02-.92,0-1.83,0-3.13,0,.39,1.01.67,1.83,1,2.63,7.62,18.14,18.5,34.07,33.28,47.04,5.84,5.13,5.02,11.05,3.97,17.15-.67,3.86-4.52,5.75-9.05,5.35-9.85-.86-19.52-2.71-28.84-6.03-34.43-12.29-59.23-35.1-73-69.01-11.49-28.3-12.05-57.16-1.62-86.09,12.64-35.06,36.76-58.83,71.22-72.29,13.58-5.3,27.77-7.44,42.41-7.39,31,.11,57.75,10.85,80.67,31.38,13.66,12.23,23.91,27,30.5,44.1,5.46,14.18,8.69,28.9,8.69,44.2,0,5.08-3.28,8.76-7.91,8.82-4.65.06-8.07-3.52-8.13-8.6-.12-10-1.56-19.79-4.49-29.36-.21-.7-.45-1.39-.68-2.08Zm-159.96,0h-38.25c-6.97,18.91-7.17,44.73.06,64h38.35c-4.76-21.33-4.72-42.53-.15-64Zm99.74-16.23c-8.57-21.3-21.47-39.11-38.97-53.83-17.46,14.75-30.36,32.55-38.87,53.83h77.84Zm-131.45,96.42c15.29,27.69,37.81,45.33,67.9,53.5.02-.28.06-.4.02-.44-1.61-1.9-3.25-3.79-4.86-5.7-11.41-13.62-20.11-28.8-26.11-45.53-.39-1.07-.63-1.88-2.12-1.87-11.44.07-22.88.04-34.83.04Zm185-96.4c-15.18-27.52-37.67-45.1-68.11-53.23,22.29,28.11,20.42,26.87,31.94,53.23h36.17Zm-117.69-53.02c-29.7,7.98-52.21,25.53-67.37,53.11,11.94,0,23.38-.03,34.83.04,1.44,0,1.77-.68,2.17-1.8,3.52-9.93,7.83-19.53,13.69-28.28,5.28-7.89,11.11-15.4,16.68-23.05Z"/>
      <path class="cls-3" d="m289.09,199.53c-.01,5.17,0,10.33-.04,15.5-.04,5.18-3.28,8.46-8.42,8.5-5.08.04-10.17.04-15.25,0-5.12-.04-8.39-3.34-8.42-8.5-.04-5.17-.03-10.33-.04-15.5,10.72,0,21.45,0,32.17,0Z"/>
      <path class="cls-2" d="m261.09,247.63c1.42,0,2.84-.06,4.25.01,4.3.22,7.66,3.76,7.65,8.01,0,4.15-3.25,7.75-7.42,7.97-3.07.16-6.17.16-9.24,0-4.16-.22-7.41-3.84-7.4-7.99,0-4.17,3.23-7.69,7.42-7.97,1.58-.11,3.16-.02,4.75-.02,0,0,0,0,0,0Z"/>
    </g>
  </g>
</svg>