<?xml version="1.0" encoding="utf-8"?>
<!-- Generator: Adobe Illustrator 19.0.0, SVG Export Plug-In . SVG Version: 6.00 Build 0)  -->
<svg version="1.1" id="Layer_1" xmlns="http://www.w3.org/2000/svg" xmlns:xlink="http://www.w3.org/1999/xlink" x="0px" y="0px"
	 viewBox="372 -81.9 1000 333" style="enable-background:new 372 -81.9 1000 333;" xml:space="preserve">
<style type="text/css">
	.st0{fill:#A6A6A6;}
	.st1{fill:#FFFFFF;}
	.st2{fill:#0091EA;}
</style>
<path class="st0" d="M1322.3,227.6H425.1c-18.6,0-33.8-15.2-33.8-33.8V-24.6c0-18.6,15.2-33.8,33.8-33.8h897.2
	c18.6,0,34.3,15.2,34.3,33.8v218.4C1356.7,212.3,1340.9,227.6,1322.3,227.6L1322.3,227.6z"/>
<path d="M1349.8,193.7c0,15.1-12.3,27.4-27.4,27.4H425.1c-15.2,0-27.5-12.3-27.5-27.4V-24.7c0-15.1,12.3-27.4,27.5-27.4h897.2
	c15.2,0,27.4,12.3,27.4,27.4V193.7L1349.8,193.7z"/>
<g>
	<path class="st1" d="M1061.8,81.8c0.6,1.9,1.1,3.9,1.7,5.8c0.2,0.8,0.4,1.7,0.7,2.5s0.4,1.8,0.6,2.6c0.2,0.9,0.4,1.7,0.5,2.6
		c0.1,0.8,0.3,1.6,0.3,2.3c0,0.2,0,0.5,0.1,0.8c0,0.3,0,0.6,0,1c0,1.8-0.3,3.6-0.8,5.3s-1.3,3.4-2.2,4.9c-0.9,1.6-2.1,3.1-3.4,4.5
		c-1.3,1.5-2.7,2.8-4.3,4.1c-1.5,1.3-3.2,2.4-4.9,3.5s-3.4,2.1-5.2,2.9l-2.7-5.5c2.2-1.1,4.3-2.4,6.4-3.8c2.1-1.4,3.9-3,5.5-4.7
		s2.9-3.5,3.9-5.4s1.5-3.9,1.5-5.9c0-0.1,0-0.3,0-0.5s0-0.5-0.1-0.7l0,0c-0.1-0.6-0.2-1.4-0.3-2.1c-0.1-0.8-0.3-1.6-0.5-2.4
		c-0.2-0.8-0.4-1.6-0.6-2.4c-0.2-0.8-0.4-1.6-0.6-2.3c-0.5-1.8-1-3.5-1.6-5.3L1061.8,81.8z M1063.3,69l-5.1,5.1l-5.2-5.2l5.1-5.1
		L1063.3,69z"/>
	<path class="st1" d="M1076.6,102.1c0.3-4.8,0.5-9.3,0.6-13.5c0.1-4.2,0.1-8.2,0-11.8c-0.1-3.6-0.2-6.8-0.4-9.7
		c-0.2-2.9-0.4-5.3-0.6-7.3s-0.3-3.6-0.5-4.7c-0.1-1.1-0.2-1.7-0.2-1.7l6.2-0.9c0,0.1,0.2,1.4,0.5,3.8c0.1,1.2,0.3,2.5,0.4,3.9
		c0.1,1.4,0.2,2.9,0.3,4.5s0.2,3.1,0.3,4.5c0.1,1.4,0.1,2.8,0.2,4.1c0.1,3.9,0.2,8.2,0.1,13.1c0,4.9-0.2,10.2-0.6,16L1076.6,102.1z"
		/>
	<path class="st1" d="M1162.2,97c-0.8-1-1.5-2.1-2-3.4c-5.5,5.8-14.3,8.7-26.2,8.7c-6.4,0-11.6-0.8-15.8-2.3s-7.2-3.8-9.1-7
		c-0.6-1-1.1-2.1-1.4-3.2c-0.3-1.1-0.5-2.2-0.6-3.3s-0.1-2.1,0-3.2c0.1-1,0.3-2,0.5-3c0.3-1,0.5-1.9,0.8-2.7
		c0.3-0.8,0.5-1.5,0.7-2.1s0.4-1,0.6-1.4c0.2-0.3,0.3-0.5,0.3-0.6l5.4,3c0,0-0.1,0.2-0.3,0.6c-0.2,0.4-0.4,0.9-0.6,1.6
		c-0.2,0.6-0.5,1.4-0.7,2.3c-0.2,0.9-0.4,1.8-0.4,2.7c-0.1,0.9,0,1.9,0.2,2.9s0.5,1.9,1,2.8c1.3,2.1,3.5,3.7,6.8,4.8
		c3.3,1.1,7.5,1.6,12.6,1.6c4.6,0,8.6-0.4,11.8-1.2s5.9-2.1,8.1-3.8c1-0.8,1.8-1.6,2.5-2.5s1.3-1.8,1.8-2.8s0.9-1.9,1.2-2.9
		s0.6-1.9,0.9-2.9l6,1.6c-0.1,0.4-0.2,0.9-0.3,1.4c-0.1,0.5-0.3,1.1-0.4,1.7c-0.3,1.2-0.4,2.3-0.3,3.1c0,0.9,0.2,1.8,0.4,2.8
		s0.7,1.9,1.3,2.6c1.5,1.9,4,2.8,7.5,2.8c0.9,0,1.6,0.3,2.2,0.9c0.6,0.6,0.9,1.3,0.9,2.2s-0.3,1.6-0.9,2.2c-0.6,0.6-1.3,0.9-2.2,0.9
		h-0.3C1168.8,102.1,1164.8,100.4,1162.2,97z M1135.2,71.3l-5.1,5.1l-5.2-5.1l5.1-5.1L1135.2,71.3z M1148.1,71.3l-5.1,5.1l-5.2-5.2
		l5.1-5.1L1148.1,71.3z"/>
	<path class="st1" d="M1171.8,99.1c0-0.9,0.3-1.6,0.9-2.2c0.6-0.6,1.4-0.9,2.2-0.9c2.3,0,4.5-0.1,6.4-0.3c2-0.2,3.7-0.5,5.2-0.9
		c1.5-0.3,2.8-0.7,3.9-1.2c1.1-0.4,1.9-0.8,2.4-1.2c0.3-0.2,0.5-0.4,0.7-0.6c0.2-0.2,0.3-0.4,0.5-0.6h-3.2c-1.1,0-2.2-0.1-3.3-0.3
		c-1.1-0.2-2.1-0.4-3-0.8c-0.9-0.4-1.8-0.8-2.6-1.3c-0.8-0.5-1.4-1.1-2-1.8c-0.3-0.4-0.6-0.8-0.9-1.4c-0.3-0.5-0.5-1.2-0.7-1.9
		s-0.3-1.5-0.3-2.4s0-1.8,0.2-2.9c0.3-1.6,0.7-3.1,1.3-4.4c0.6-1.3,1.3-2.5,2.1-3.6c0.9-1.2,2-2.2,3.2-2.8s2.4-0.9,3.6-0.9
		c2.8,0,5.3,1.2,7.5,3.7c1,1.1,1.8,2.3,2.6,3.7c0.7,1.4,1.3,2.9,1.8,4.5s0.8,3.3,0.9,5c0.2,1.7,0.2,3.4,0,5.1l0,0
		c-0.1,0.8-0.3,1.7-0.5,2.5c-0.1,0.3-0.2,0.6-0.3,1s-0.3,0.9-0.6,1.4s-0.7,1.1-1.2,1.7c-0.5,0.6-1.1,1.2-1.9,1.8
		c-1,0.8-2.3,1.5-3.8,2.1s-3.2,1.1-5.1,1.5c-1.9,0.4-3.9,0.7-6,0.9s-4.3,0.3-6.4,0.3h-0.5c-0.9,0-1.6-0.3-2.2-0.9
		C1172.2,100.7,1171.8,100,1171.8,99.1z M1192.7,56l-5.1,5.1l-5.2-5.2l5.1-5.1L1192.7,56z M1188.4,73c-0.3,0-0.6,0.1-1,0.4
		c-0.4,0.3-0.8,0.7-1.2,1.3s-0.8,1.3-1.1,2.1s-0.6,1.8-0.8,2.8c-0.3,1.6-0.1,2.7,0.5,3.5c0.4,0.5,1,0.9,1.8,1.2s1.8,0.5,2.9,0.6
		c1.1,0,2.1,0.1,3,0.1s1.7,0,2.4-0.1c-0.1-2-0.5-4-1.2-5.8c-0.6-1.8-1.5-3.3-2.6-4.5c-0.3-0.4-0.8-0.7-1.3-1.1
		C1189.6,73.2,1189.1,73,1188.4,73z"/>
	<path class="st1" d="M1224.4,102.2c-2.3,0-4.3-0.3-5.9-0.8c-1.6-0.5-3-1.4-4.2-2.5c-0.7-0.7-1.2-1.4-1.6-2.2
		c-0.4-0.8-0.6-1.6-0.8-2.4c-0.2-0.8-0.3-1.5-0.3-2.2s0-1.3,0-1.8v-0.6c0,0,0-0.4,0-1.1c0-0.7,0-1.7,0-3s0-2.7,0-4.4
		c0-1.6,0-3.4,0-5.2s0-3.7-0.1-5.6c0-2-0.1-3.8-0.2-5.7c-0.1-1.8-0.2-3.5-0.3-5s-0.3-2.8-0.5-3.8l6.2-1.1c0.2,1.1,0.4,2.4,0.5,3.9
		c0.1,1.6,0.3,3.2,0.4,5.1c0.1,1.8,0.2,3.7,0.2,5.7s0.1,3.9,0.1,5.8c0,1.8,0,3.6,0,5.3s0,3.2,0,4.5s0,2.4,0,3.3c0,0.9,0,1.4,0,1.5
		v0.6c0,0.9,0,1.7,0.1,2.4s0.4,1.3,0.9,1.7c0.9,1,2.7,1.5,5.3,1.5h0.3c0.4,0,0.8,0.1,1.2,0.3c0.4,0.2,0.7,0.4,1,0.7
		c0.3,0.3,0.5,0.6,0.7,1s0.3,0.8,0.3,1.2c0,0.9-0.3,1.6-0.9,2.2C1226.3,102.1,1225.3,102.2,1224.4,102.2z"/>
	<path class="st1" d="M1219.7,99.1c0-0.9,0.3-1.6,0.9-2.2c0.6-0.6,1.3-0.9,2.2-0.9h3.5c0.7,0,1.5,0,2.4,0c0.9,0,1.7-0.1,2.6-0.1
		c0.9,0,1.7-0.2,2.6-0.4c0.8-0.2,1.6-0.4,2.3-0.7s1.3-0.6,1.9-1.1c0.5-0.4,0.9-0.9,1.2-1.5c0.4-0.9,0.5-2.2,0.4-3.8
		c-0.2-1.7-0.6-3.6-1.3-5.8c-0.2-0.7-0.5-1.4-0.8-2.2c-0.3-0.8-0.6-1.5-0.9-2.2c-0.3-0.8-0.7-1.6-1-2.4l5.6-2.8c0,0,0.1,0.2,0.3,0.6
		c0.2,0.4,0.4,1,0.7,1.6c0.3,0.7,0.6,1.5,1,2.4c0.4,0.9,0.7,1.9,1,2.9c2,6,2.2,10.7,0.7,14.1c-1.5,3.4-4.1,5.6-7.9,6.7
		c-0.6,0.2-1.3,0.3-2.2,0.4c-0.9,0.1-1.8,0.2-2.7,0.2s-1.8,0.1-2.6,0.1s-1.5,0-1.9,0h-4.6h-0.3c-0.9,0-1.6-0.3-2.2-0.9
		C1219.9,100.7,1219.7,100,1219.7,99.1z M1234.8,113l-5.1,5.1l-5.2-5.1l5.1-5.1L1234.8,113z M1247.8,113.1l-5.1,5.1l-5.2-5.2
		l5.1-5.1L1247.8,113.1z"/>
	<path class="st1" d="M1267.2,81.8c0.6,1.9,1.1,3.9,1.7,5.8c0.2,0.8,0.4,1.7,0.7,2.5s0.4,1.8,0.6,2.6c0.2,0.9,0.4,1.7,0.5,2.6
		c0.1,0.8,0.3,1.6,0.3,2.3c0,0.2,0,0.5,0.1,0.8c0,0.3,0,0.6,0,1c0,1.8-0.3,3.6-0.8,5.3s-1.3,3.4-2.2,4.9c-0.9,1.6-2.1,3.1-3.4,4.5
		c-1.3,1.5-2.7,2.8-4.3,4.1c-1.5,1.3-3.2,2.4-4.9,3.5s-3.4,2.1-5.2,2.9l-2.7-5.5c2.2-1.1,4.3-2.4,6.4-3.8c2.1-1.4,3.9-3,5.5-4.7
		s2.9-3.5,3.9-5.4s1.5-3.9,1.5-5.9c0-0.1,0-0.3,0-0.5s0-0.5-0.1-0.7l0,0c-0.1-0.6-0.2-1.4-0.3-2.1c-0.1-0.8-0.3-1.6-0.5-2.4
		c-0.2-0.8-0.4-1.6-0.6-2.4c-0.2-0.8-0.4-1.6-0.6-2.3c-0.5-1.8-1-3.5-1.6-5.3L1267.2,81.8z"/>
	<path class="st1" d="M1292.1,102.1c-1,0-2.2-0.1-3.6-0.4c-1.4-0.3-2.7-0.6-4.1-1c-1.4-0.4-2.6-0.8-3.7-1.3s-2-1-2.5-1.5l2.6-5.9
		c0.8,0.5,1.7,1,2.8,1.5c1.1,0.5,2.2,0.9,3.5,1.2c1.2,0.3,2.5,0.6,3.8,0.8s2.6,0.2,3.8,0.1c1.2-0.1,2.3-0.4,3.4-0.8
		c1-0.4,1.9-1.1,2.6-1.9c0.6-0.6,0.6-1.9,0.2-3.6c-0.2-1-0.6-2.1-1.1-3.2c-0.5-1.1-1.1-2.2-1.9-3.4c-0.7-1.1-1.5-2.2-2.4-3.3
		s-1.8-2.1-2.8-3s-1.9-1.7-2.9-2.4s-2-1.3-2.9-1.7l2.5-5.7c1.2,0.6,2.5,1.3,3.7,2.2c1.3,0.9,2.5,1.9,3.7,3c1.2,1.1,2.3,2.4,3.4,3.7
		c1.1,1.3,2.1,2.7,2.9,4.1c0.9,1.4,1.6,2.8,2.3,4.2c0.6,1.4,1.1,2.8,1.4,4.1c0.3,1.2,0.4,2.2,0.4,3.2c0,0.9-0.1,1.8-0.3,2.5
		c-0.2,0.7-0.4,1.4-0.7,1.9c-0.3,0.6-0.6,1-0.9,1.4c-1.9,2.3-4.6,3.9-8.1,4.6c-0.8,0.2-1.6,0.4-2.5,0.4
		C1293.9,102.1,1292.9,102.1,1292.1,102.1z"/>
</g>
<g id="XMLID_21_">
	<g id="XMLID_22_">
		<path id="XMLID_26_" class="st1" d="M702.5,68.2c2.8,0,5.2-1,7.2-3c0.6-0.6,1.1-1.3,1.5-1.9c0.4,0.7,0.9,1.3,1.4,1.9
			c2,2,4.3,3,7.1,3c2.8,0,5.2-1,7.1-3c2-2,2.9-4.4,2.9-7.2s-1-5.2-2.9-7.1c-1.9-1.9-4.3-2.9-7.1-2.9c-2.8,0-5.2,1-7.1,2.9
			c-0.6,0.6-1.1,1.2-1.4,1.9c-0.4-0.7-0.9-1.3-1.5-1.9c-2-2-4.4-2.9-7.2-2.9c-2.7,0-5.2,1-7.1,3c-1.9,2-3,4.3-3,7.1s1,5.2,2.9,7.2
			C697.3,67.2,699.7,68.2,702.5,68.2z"/>
		<path id="XMLID_25_" class="st1" d="M907.8,51c-2.4,0-4.4,0.8-5.9,2.6c-1.6,1.7-2.4,3.8-2.4,6.2c0,1.7,0.5,4.3,1.3,7.7
			c0.8,3.3,1.3,5.9,1.3,7.7c0,6.1-4.4,9.2-13.1,9.2h-3.1h-5h-2.1c-7.8,0-15.2-3.4-22.3-10.2c-8.3-8.2-13.8-13.7-16.7-16.6
			c-10.2-9.9-18.9-17.7-26.2-23.7c-1.2-1-1.8-2.1-1.8-3.3s0.8-2.1,2.2-2.7c14.6-5.7,30.3-10.5,46.9-14.3c5.2-1.1,7.7-3.9,7.7-8.2
			c0-5.7-3.3-8.6-10-8.6c-1.1,0-2.5,0.2-4,0.5c-24.4,5.7-42.2,12.1-53.6,19c-5.1,3.1-7.6,8.2-7.6,15.2c0,3.4,0.5,6.1,1.7,8.2
			c2,3.5,8.5,10.1,19.6,19.6c9.9,8.5,14.8,14.3,14.8,17.3c0,4.1-4.2,6.5-12.6,7.4c-1.8,0.2-8.6,0.2-20.5,0.2h-2.5H791
			c-7.9,0-12.4-3.2-13.7-9.6c-0.7-3.6-1.1-5.8-1.3-6.7c-1.1-2.6-3.1-3.9-6.1-3.9c-2.7,0-4.9,1.7-6.4,5.2c-2.5,5.6-4,8.9-4.8,9.8
			c-5.2,6.6-19,9.9-41.3,9.9h-10.8c-15.2,0-25.6-1.7-31.2-5.3c-3.8-2.4-5.7-6.1-5.7-11c0-1.4,0.3-3.6,0.9-6.4c0.6-2.9,0.9-5,0.9-6.4
			c0-4.3-2.1-6.4-6.4-6.4c-4,0-7.2,3.5-9.3,10.5c-1.5,4.9-2.3,10-2.3,15.3c0,20.4,17.4,30.6,52.2,30.6c33.4,0,54.2-5.2,62-15.7
			c3.4,7.2,10.1,10.8,20,10.8h1h5.1h0.2c15.1,0,25.7-0.9,31.9-2.8c9.5-2.9,15.3-8.9,17.5-17.9c9.8,13.8,22,20.7,36.5,20.7h0.9h5h2
			c9.8,0,17.4-2.9,23-8.6c5.6-5.7,8.3-13.5,8.3-23.4C919,58.3,915.3,51,907.8,51z"/>
		<path id="XMLID_24_" class="st1" d="M893.3,115.8c-2.7,0-5.2,1-7.1,3c-1.3,1.3-2.1,2.8-2.6,4.4c-0.5-1.7-1.3-3.1-2.6-4.4
			c-2-2-4.3-3-7.1-3c-2.8,0-5.2,1-7.2,2.9s-3,4.3-3,7.1s1,5.2,3,7.2s4.4,3,7.2,3c2.8,0,5.2-1,7.1-3c1.3-1.3,2-2.8,2.5-4.5
			c0.5,1.7,1.2,3.2,2.5,4.5c2,2,4.3,3,7.1,3s5.2-1,7.2-3s3-4.4,3-7.2s-1-5.2-3-7.1S896.2,115.8,893.3,115.8z"/>
		<path id="XMLID_23_" class="st1" d="M1017.3,65.2c-3.6-5.7-8.8-8.6-15.5-8.6c-5.6,0-11.1,3-16.7,9c-1.1,1.3-3.9,5.1-8.3,11.4
			c-2,2.9-3.9,4.9-5.8,5.8c-1.8,1-4.4,1.5-7.8,1.5h-2.3c-9.3,0-13.8-5.7-13.8-17V8c0-7.9-3-11.8-9-11.8c-3,0-5.4,1.3-7,3.8
			c-1.4,2.2-2,4.9-2,8l2,56.1c0.5,14,2,23.4,4.3,28.5c3.9,8.3,11.7,12.4,23.4,12.4h0.9h5h0.5c6.5,0,12-2.3,16.5-6.8
			c5.1,6.1,11.6,9.1,19.7,9.1c6.3,0,11.4-2.5,15.2-7.6c3.5-4.6,5.2-10,5.2-16.5C1022,76,1020.3,70,1017.3,65.2z M1001,90.2
			c-2,0-4-0.6-6.4-1.7c-2.7-1.4-4-3-4-4.7c0-2.3,1.1-4.5,3.4-6.5c2.3-2,4.6-3.1,6.8-3.1c2.3,0,4.1,1.1,5.5,3.2
			c1.1,1.8,1.7,3.9,1.7,6.4C1008,88.1,1005.8,90.2,1001,90.2z"/>
	</g>
</g>
<g id="XMLID_15_">
	<g id="XMLID_16_">
		<circle id="XMLID_20_" class="st2" cx="534.5" cy="66.1" r="89.6"/>
		<g id="XMLID_17_">
			<path id="XMLID_19_" class="st1" d="M589.5,55.5c-0.7-17-14.7-30.4-31.8-30.4c-9.5,0-18.1,4.2-23.9,10.8
				c-5.8-6.6-14.4-10.8-23.9-10.8c-16.8,0-30.6,13-31.8,29.5c0,0.4-0.1,0.8-0.1,1.2v36c0,4.4,3.6,8,8,8h0.2c4.4,0,8-3.6,8-8V57l0,0
				c0-8.7,7.1-15.8,15.8-15.8s15.8,7.1,15.8,15.8l0,0v29.4c0,4.4,3.6,8,8,8h0.2c4.4,0,8-3.6,8-8V57c0-8.7,7.1-15.8,15.8-15.8
				s15.8,7.1,15.8,15.8l0,0v34.9c0,4.4,3.5,7.9,7.9,7.9h0.2c4.4,0,7.9-3.5,7.9-7.9V56.3C589.5,56,589.5,55.7,589.5,55.5z"/>
			<path id="XMLID_18_" class="st1" d="M559.3,102.8c-0.4-0.6-1.5,0.6-1.5,0.6c-4.4,4.8-13.6,7.9-23.1,7.9s-18.6-3.1-23.1-7.9
				c0,0-1.2-1.2-1.5-0.6c-0.5,0.7,0.2,1.8,0.2,1.8c5.7,8.2,14.3,11.8,24.4,11.8c10.1,0,18.7-3.7,24.4-11.8
				C559,104.7,559.8,103.6,559.3,102.8z"/>
		</g>
	</g>
</g>
</svg>
